<svg xmlns="http://www.w3.org/2000/svg" version="1.1" xmlns:xlink="http://www.w3.org/1999/xlink" xmlns:svgjs="http://svgjs.dev/svgjs" width="1500" height="185" viewBox="0 0 1500 185"><g transform="matrix(1,0,0,1,-0.9090909090909918,0.21184460460897014)"><svg viewBox="0 0 396 49" data-background-color="#ffffff" preserveAspectRatio="xMidYMid meet" height="185" width="1500" xmlns="http://www.w3.org/2000/svg" xmlns:xlink="http://www.w3.org/1999/xlink"><g id="tight-bounds" transform="matrix(1,0,0,1,0.2400000000000091,-0.05611019257210614)"><svg viewBox="0 0 395.52 49.11222038514423" height="49.11222038514423" width="395.52"><g><svg viewBox="0 0 504.76514755503376 62.67732900855244" height="49.11222038514423" width="395.52"><g><rect width="4.089946608534584" height="45.579389040228065" x="406.22666651448844" y="8.548969984162188" fill="#0074d9" opacity="1" stroke-width="0" stroke="transparent" fill-opacity="1" class="rect-qz-0" data-fill-palette-color="primary" rx="1%" id="qz-0" data-palette-color="#0074d9"></rect></g><g transform="matrix(1,0,0,1,0,8.662351548938872)"><svg viewBox="0 0 395.52 45.352625910674696" height="45.352625910674696" width="395.52"><g id="textblocktransform"><svg viewBox="0 0 395.52 45.352625910674696" height="45.352625910674696" width="395.52" id="textblock"><g><svg viewBox="0 0 395.52 45.352625910674696" height="45.352625910674696" width="395.52"><g transform="matrix(1,0,0,1,0,0)"><svg width="395.52" viewBox="3.7 -35.6 318.33 36.2" height="45.352625910674696" data-palette-color="#0074d9"><g class="wordmark-text-0" data-fill-palette-color="primary" id="text-0"><path d="M25.35 0L3.7 0 3.7-35 25.35-35 25.35-31.55 7.9-31.55 7.9-19.35 23.85-19.35 23.85-15.95 7.9-15.95 7.9-3.45 25.35-3.45 25.35 0ZM42.65 0L31.9 0 31.9-35 42.65-35Q51.9-35 56.27-30.3 60.65-25.6 60.65-17.4L60.65-17.4Q60.65-9.35 56.27-4.67 51.9 0 42.65 0L42.65 0ZM36.1-31.5L36.1-3.5 42.55-3.5Q47.65-3.5 50.67-5.18 53.7-6.85 55-9.98 56.3-13.1 56.3-17.4L56.3-17.4Q56.3-21.8 55-24.95 53.7-28.1 50.67-29.8 47.65-31.5 42.55-31.5L42.55-31.5 36.1-31.5ZM79.34 0.6L79.34 0.6Q75.75 0.6 72.82-0.83 69.9-2.25 68.15-5.25 66.4-8.25 66.4-12.9L66.4-12.9 66.4-35 70.59-35 70.59-12.85Q70.59-7.75 73.05-5.45 75.5-3.15 79.45-3.15L79.45-3.15Q83.4-3.15 85.8-5.45 88.2-7.75 88.2-12.85L88.2-12.85 88.2-35 92.4-35 92.4-12.9Q92.4-8.25 90.65-5.25 88.9-2.25 85.95-0.83 83 0.6 79.34 0.6ZM114.84 0.6L114.84 0.6Q109.69 0.6 105.97-1.68 102.24-3.95 100.19-8.03 98.14-12.1 98.14-17.5L98.14-17.5Q98.14-22.85 100.19-26.93 102.24-31 105.97-33.3 109.69-35.6 114.84-35.6L114.84-35.6Q120.84-35.6 124.62-32.73 128.39-29.85 129.44-24.7L129.44-24.7 124.79-24.7Q123.99-27.95 121.52-29.93 119.04-31.9 114.84-31.9L114.84-31.9Q111.09-31.9 108.29-30.18 105.49-28.45 103.97-25.23 102.44-22 102.44-17.5L102.44-17.5Q102.44-13 103.97-9.78 105.49-6.55 108.29-4.83 111.09-3.1 114.84-3.1L114.84-3.1Q119.04-3.1 121.52-5.03 123.99-6.95 124.79-10.15L124.79-10.15 129.44-10.15Q128.39-5.1 124.62-2.25 120.84 0.6 114.84 0.6ZM137.69 0L133.29 0 146.19-35 150.64-35 163.49 0 159.04 0 155.84-9 140.94-9 137.69 0ZM148.39-29.7L142.19-12.4 154.59-12.4 148.39-29.7ZM176.49 0.6L176.49 0.6Q171.74 0.6 169.04-2.05 166.34-4.7 166.34-9.4L166.34-9.4 170.59-9.4Q170.59-6.75 171.89-4.95 173.19-3.15 176.44-3.15L176.44-3.15Q179.59-3.15 180.81-4.9 182.04-6.65 182.04-9.25L182.04-9.25 182.04-35 186.24-35 186.24-9.25Q186.24-4.6 183.66-2 181.09 0.6 176.49 0.6ZM206.28 0.6L206.28 0.6Q202.69 0.6 199.76-0.83 196.84-2.25 195.09-5.25 193.34-8.25 193.34-12.9L193.34-12.9 193.34-35 197.53-35 197.53-12.85Q197.53-7.75 199.99-5.45 202.44-3.15 206.38-3.15L206.38-3.15Q210.34-3.15 212.74-5.45 215.13-7.75 215.13-12.85L215.13-12.85 215.13-35 219.34-35 219.34-12.9Q219.34-8.25 217.59-5.25 215.84-2.25 212.88-0.83 209.94 0.6 206.28 0.6ZM230.63 0L226.43 0 226.43-35 230.63-35 249.28-6.95 249.28-35 253.48-35 253.48 0 249.28 0 230.63-28.05 230.63 0ZM273.28 0L269.08 0 269.08-31.55 258.63-31.55 258.63-35 283.73-35 283.73-31.55 273.28-31.55 273.28 0ZM304.78 0.6L304.78 0.6Q299.63 0.6 295.75-1.68 291.88-3.95 289.7-8.05 287.53-12.15 287.53-17.5L287.53-17.5Q287.53-22.85 289.7-26.93 291.88-31 295.75-33.3 299.63-35.6 304.78-35.6L304.78-35.6Q309.98-35.6 313.85-33.3 317.73-31 319.88-26.93 322.03-22.85 322.03-17.5L322.03-17.5Q322.03-12.15 319.88-8.05 317.73-3.95 313.85-1.68 309.98 0.6 304.78 0.6ZM304.78-3.1L304.78-3.1Q308.63-3.1 311.55-4.83 314.48-6.55 316.1-9.78 317.73-13 317.73-17.5L317.73-17.5Q317.73-22 316.1-25.2 314.48-28.4 311.55-30.13 308.63-31.85 304.78-31.85L304.78-31.85Q300.93-31.85 298-30.13 295.08-28.4 293.45-25.2 291.83-22 291.83-17.5L291.83-17.5Q291.83-13 293.45-9.78 295.08-6.55 298-4.83 300.93-3.1 304.78-3.1Z" fill="#0074d9" data-fill-palette-color="primary"></path></g></svg></g></svg></g></svg></g></svg></g><g transform="matrix(1,0,0,1,421.0232796375115,0)"><svg viewBox="0 0 83.7418679175223 62.67732900855244" height="62.67732900855244" width="83.7418679175223"><g><svg xmlns="http://www.w3.org/2000/svg" xmlns:xlink="http://www.w3.org/1999/xlink" version="1.1" x="0" y="0" viewBox="11.300000000000004 22.8 81.10000000000002 60.7" style="enable-background:new 0 0 100 100;" xml:space="preserve" height="62.67732900855244" width="83.7418679175223" class="icon-icon-0" data-fill-palette-color="accent" id="icon-0"><g fill="#ff851b" data-fill-palette-color="accent"><g fill="#ff851b" data-fill-palette-color="accent"><g fill="#ff851b" data-fill-palette-color="accent"><path d="M42.1 68.1l-3.3 0c0-6.8-5.4-12.3-12.1-12.3s-12.1 5.4-12.1 12.1h-3.3c0-8.5 6.9-15.4 15.4-15.4s15.4 6.9 15.4 15.4L42.1 68.1z" fill="#ff851b" data-fill-palette-color="accent"></path></g><g fill="#ff851b" data-fill-palette-color="accent"><path d="M26.7 52.7c-4.2 0-7.5-3.4-7.5-7.5s3.4-7.5 7.5-7.5 7.5 3.4 7.5 7.5S30.9 52.7 26.7 52.7zM26.7 40.9c-2.3 0-4.2 1.9-4.2 4.2 0 2.3 1.9 4.2 4.2 4.2s4.2-1.9 4.2-4.2C31 42.8 29.1 40.9 26.7 40.9z" fill="#ff851b" data-fill-palette-color="accent"></path></g><g fill="#ff851b" data-fill-palette-color="accent"><path d="M92.4 68.1l-3.3 0c0-6.8-5.4-12.3-12.1-12.3s-12.1 5.4-12.1 12.1h-3.3c0-8.5 6.9-15.4 15.4-15.4s15.4 6.9 15.4 15.4L92.4 68.1z" fill="#ff851b" data-fill-palette-color="accent"></path></g><g fill="#ff851b" data-fill-palette-color="accent"><path d="M77 52.7c-4.2 0-7.5-3.4-7.5-7.5s3.4-7.5 7.5-7.5c4.2 0 7.5 3.4 7.5 7.5S81.2 52.7 77 52.7zM77 40.9c-2.3 0-4.2 1.9-4.2 4.2 0 2.3 1.9 4.2 4.2 4.2s4.2-1.9 4.2-4.2C81.3 42.8 79.4 40.9 77 40.9z" fill="#ff851b" data-fill-palette-color="accent"></path></g></g><g fill="#ff851b" data-fill-palette-color="accent"><g fill="#ff851b" data-fill-palette-color="accent"><path d="M30.2 35.9l-2.5-2.1C33.5 26.8 42 22.8 51 22.8c7.9 0 15.3 3 21 8.4l-2.3 2.4C64.6 28.8 58 26.1 51 26.1 43 26.1 35.4 29.7 30.2 35.9z" fill="#ff851b" data-fill-palette-color="accent"></path></g><g fill="#ff851b" data-fill-palette-color="accent"><g fill="#ff851b" data-fill-palette-color="accent"><polygon points="62.2,31.5 70.1,31.8 70.4,23.9 73.6,27.3 73.4,35.3 65.5,35     " fill="#ff851b" data-fill-palette-color="accent"></polygon></g></g></g><g fill="#ff851b" data-fill-palette-color="accent"><g fill="#ff851b" data-fill-palette-color="accent"><path d="M51.4 83.5c-7.9 0-15.3-3-21-8.4l2.3-2.4c5.1 4.8 11.7 7.5 18.7 7.5 8 0 15.6-3.5 20.7-9.7l2.5 2.1C68.9 79.5 60.4 83.5 51.4 83.5z" fill="#ff851b" data-fill-palette-color="accent"></path></g><g fill="#ff851b" data-fill-palette-color="accent"><g fill="#ff851b" data-fill-palette-color="accent"><polygon points="40.1,74.8 32.2,74.5 32,82.4 28.7,79 29,71.1 36.9,71.3     " fill="#ff851b" data-fill-palette-color="accent"></polygon></g></g></g></g></svg></g></svg></g></svg></g><defs></defs></svg><rect width="395.52" height="49.11222038514423" fill="none" stroke="none" visibility="hidden"></rect></g></svg></g></svg>